<svg version="1.1" id="Layer_1" xmlns="http://www.w3.org/2000/svg" xmlns:xlink="http://www.w3.org/1999/xlink" x="0px" y="0px"
	 width="100%" viewBox="0 0 592 592" enable-background="new 0 0 592 592" xml:space="preserve">
<path fill="#000000" opacity="1.000000" stroke="none" 
	d="
M234.899963,221.058044 
	C235.542099,211.622726 236.132812,202.654373 236.812790,193.692780 
	C237.203506,188.543442 240.007538,185.745087 245.193375,185.736984 
	C281.998291,185.679504 318.803375,185.685120 355.608307,185.739044 
	C360.742310,185.746567 363.833374,188.311249 364.132812,192.945038 
	C365.613129,215.852737 366.959442,238.769135 368.330200,261.683807 
	C368.377655,262.477692 368.182922,263.286041 368.065857,264.432587 
	C363.382629,265.103790 358.786285,263.738617 354.201965,265.029022 
	C342.904755,268.209076 335.416840,275.069122 333.251190,286.658264 
	C332.243164,292.052490 330.021393,293.589478 324.664062,293.474548 
	C308.350891,293.124573 292.022858,293.210480 275.705811,293.462921 
	C271.089172,293.534332 269.053680,292.381775 268.115173,287.470093 
	C265.172882,272.071686 252.196274,262.855988 236.734390,264.804291 
	C232.722626,265.309814 232.241791,263.718353 232.475510,260.368500 
	C233.378311,247.428543 234.098022,234.475815 234.899963,221.058044 
M335.248047,209.024384 
	C339.845245,204.909012 344.442413,200.793640 349.039581,196.678253 
	C348.815887,196.105591 348.592194,195.532928 348.368500,194.960266 
	C335.517609,208.830505 319.445679,205.323273 302.910980,205.106934 
	C305.613953,200.931213 307.954987,197.266800 303.748077,193.879410 
	C301.524475,192.088989 298.893982,192.298706 296.885315,194.223862 
	C292.978943,197.967834 295.953735,201.358871 298.696106,205.390350 
	C282.537994,204.723724 266.474152,209.352066 253.258041,196.644363 
	C255.915497,200.175705 258.949493,202.873245 261.861755,205.696365 
	C265.370911,209.098099 269.304871,210.730667 274.378479,210.669632 
	C292.700226,210.449203 311.026489,210.600662 329.351044,210.621078 
	C331.201416,210.623138 333.022797,210.553345 335.248047,209.024384 
M325.363495,237.175034 
	C325.385529,238.839066 324.797058,240.867294 325.534943,242.104324 
	C328.790833,247.562698 334.230255,243.832932 338.617950,244.738205 
	C341.079590,245.246078 342.568665,243.887085 342.882141,241.120255 
	C343.606659,234.725601 342.438629,233.406479 336.033691,233.773605 
	C333.875946,233.897278 331.703827,233.865997 329.542023,233.793625 
	C327.531372,233.726303 325.850952,234.027618 325.363495,237.175034 
M266.771271,233.897232 
	C264.159546,234.389359 261.064606,232.209030 258.923279,235.166763 
	C257.479279,237.161362 258.312469,243.411240 259.998260,244.362015 
	C262.705017,245.888611 274.659607,244.656860 275.414215,242.751663 
	C275.591339,242.304398 275.568817,241.777847 275.636719,241.287582 
	C276.513062,234.960831 275.437653,233.965530 266.771271,233.897232 
z"/>
<path fill="#000000" opacity="1.000000" stroke="none" 
	d="
M138.887482,347.984711 
	C139.898407,318.715576 140.701340,289.924713 141.952286,261.153320 
	C143.337555,229.292618 168.810486,202.570786 200.632629,198.871719 
	C208.386841,197.970352 216.082611,196.549973 223.792908,195.292603 
	C229.085754,194.429428 230.111633,195.257492 229.071045,200.222153 
	C226.101868,214.387772 223.020950,228.529922 220.029083,242.690826 
	C219.434097,245.507050 217.894440,246.919662 214.979340,247.302658 
	C208.549118,248.147537 202.137009,249.153198 195.743439,250.245178 
	C191.762466,250.925110 190.414124,249.651932 191.602951,245.676422 
	C193.263702,240.122803 194.287064,234.442657 194.997849,228.080734 
	C187.123901,227.994156 179.965866,229.102905 172.861786,230.678101 
	C170.016632,231.308975 170.197830,233.704559 170.102188,235.866623 
	C169.601990,247.173462 169.220016,258.486816 168.586884,269.786133 
	C167.916321,281.753204 168.129898,293.737061 167.360565,305.716370 
	C166.605804,317.468872 167.196106,329.307709 167.196106,341.658569 
	C176.879959,331.353180 174.788300,317.412231 179.199570,304.706390 
	C172.338715,305.988342 172.572586,302.045105 173.150940,298.160126 
	C173.916901,293.015015 173.701706,287.852509 173.745651,282.697571 
	C173.770447,279.790100 174.651428,277.912842 177.770569,277.451874 
	C188.133713,275.920349 198.482391,274.290161 208.848694,272.780884 
	C212.229889,272.288544 213.232208,273.661865 212.468231,277.134338 
	C207.498856,299.720978 202.715454,322.348450 197.821625,344.951843 
	C196.419571,351.427551 190.847610,354.996155 186.939789,359.606293 
	C171.761688,377.512238 156.201279,395.094208 140.773102,412.787994 
	C139.826996,413.873016 139.003052,415.216644 136.401947,415.131195 
	C137.230423,392.818512 138.053726,370.645050 138.887482,347.984711 
z"/>
<path fill="#000000" opacity="1.000000" stroke="none" 
	d="
M439.162720,232.066071 
	C428.592438,230.310852 418.498932,228.332550 407.873352,227.456161 
	C407.528076,232.355057 408.919617,236.605988 410.032898,240.848740 
	C410.713562,243.442810 413.356506,243.377136 415.416107,243.702469 
	C428.564117,245.779358 441.708801,247.896103 454.896454,249.691956 
	C458.826447,250.227097 460.324158,251.775818 460.344208,255.746368 
	C460.379517,262.733521 460.821869,269.722076 461.223022,276.702606 
	C461.453308,280.709656 460.458923,282.470123 455.821686,281.653320 
	C444.520142,279.662628 433.128845,278.181335 421.773438,276.496796 
	C420.632477,276.327545 419.481323,276.003357 417.814545,276.985474 
	C419.612579,285.472809 421.463623,294.162537 423.292694,302.856934 
	C425.347137,312.622284 427.460907,322.376312 429.381226,332.168152 
	C430.036652,335.510101 432.117828,337.831024 434.229828,340.155518 
	C436.492767,342.646149 438.470398,345.240540 439.703278,348.425140 
	C447.516785,368.607605 455.397186,388.764191 463.220886,408.942719 
	C463.725708,410.244812 464.846313,411.600403 463.508911,413.112671 
	C461.441833,413.219086 460.762970,411.421967 459.735077,410.243988 
	C444.511169,392.797852 429.734558,374.936951 413.950287,358.015411 
	C406.902161,350.459473 403.907135,341.907867 401.888672,332.386108 
	C395.503632,302.266144 388.980164,272.175568 382.538635,242.067566 
	C379.509369,227.908676 376.625946,213.717987 373.496735,199.581482 
	C372.673035,195.860367 373.731354,194.564148 377.429138,195.105347 
	C391.425018,197.153793 405.390137,199.483124 419.438263,201.077957 
	C428.337006,202.088226 435.153534,206.531738 441.057556,212.501434 
	C446.839417,218.347656 452.207672,224.690384 455.351807,233.139114 
	C449.506409,234.478043 444.611847,232.167007 439.162720,232.066071 
z"/>
<path fill="#000000" opacity="1.000000" stroke="none" 
	d="
M475.419922,336.413635 
	C474.763031,354.713348 474.145691,372.544678 473.491211,391.449341 
	C470.573181,388.814453 471.043335,386.696228 470.995422,384.796661 
	C470.210815,353.664185 469.822845,322.516418 468.572174,291.403198 
	C467.985229,276.801392 469.376007,262.019714 466.054535,247.598526 
	C459.657196,219.822556 442.396942,202.351959 414.931519,195.216537 
	C405.288361,192.711273 395.372131,191.250320 385.568848,189.373932 
	C383.606506,188.998337 381.648163,188.758301 380.134003,187.250534 
	C380.691986,185.345978 382.287537,185.761093 383.449951,185.866791 
	C399.017975,187.282288 414.763062,187.748474 430.099243,190.490997 
	C455.423920,195.019730 474.301270,215.989120 478.209320,241.691513 
	C480.107300,254.173889 477.829285,266.609314 477.785522,279.072479 
	C477.728271,295.377899 476.733154,311.680634 476.099854,327.982880 
	C475.996552,330.641266 475.678345,333.291351 475.419922,336.413635 
z"/>
<path fill="#000000" opacity="1.000000" stroke="none" 
	d="
M127.821350,365.088928 
	C126.414902,328.535309 125.289932,292.438812 123.525467,256.373596 
	C122.507103,235.558395 128.797760,218.019867 144.366241,204.128128 
	C154.769684,194.845215 167.244064,190.158310 181.092636,188.996460 
	C193.186279,187.981842 205.274734,186.905380 217.369370,185.903015 
	C218.806900,185.783890 220.340073,185.516312 221.918228,186.632553 
	C220.884247,188.848373 218.822845,188.922379 216.977493,189.287415 
	C207.191650,191.223190 197.353058,192.918793 187.619186,195.085861 
	C157.486542,201.794373 135.352051,228.481461 134.296616,259.433655 
	C133.712341,276.568268 133.546646,293.716705 133.094635,310.856354 
	C132.476028,334.313080 131.777008,357.767792 131.064682,381.221924 
	C131.017761,382.766815 131.473953,384.601410 128.904373,386.140961 
	C128.532028,378.977142 128.183334,372.268127 127.821350,365.088928 
z"/>
<path fill="#000000" opacity="1.000000" stroke="none" 
	d="
M225.919540,269.091827 
	C237.090866,264.030365 247.959610,263.806488 257.788544,271.981659 
	C269.301666,281.557617 271.155060,297.686920 262.430237,309.164307 
	C253.250885,321.239624 237.162231,323.865417 224.603775,315.332703 
	C223.642136,314.679352 222.706055,313.988434 221.212219,312.964691 
	C219.460541,311.108154 218.254745,309.601898 217.048965,308.095642 
	C212.585770,299.408722 211.264771,290.576508 215.503677,281.347931 
	C217.204483,277.645050 219.790894,274.681885 222.920044,271.298523 
	C224.184860,270.240631 225.052200,269.666229 225.919540,269.091827 
M256.787476,294.221191 
	C256.669586,285.224670 252.660583,279.381653 245.093307,277.177307 
	C238.073227,275.132385 230.414871,277.745972 226.710831,283.683319 
	C222.908676,289.777924 223.141922,296.004974 226.918594,302.016937 
	C230.458527,307.652069 237.131119,310.241455 244.439713,308.538239 
	C251.474014,306.898926 255.427628,302.088837 256.787476,294.221191 
z"/>
<path fill="#000000" opacity="1.000000" stroke="none" 
	d="
M378.975403,271.966187 
	C381.076782,274.740723 383.371033,277.340118 385.010071,280.486084 
	C390.612640,291.239594 388.918488,301.245605 381.487152,310.190399 
	C374.013306,319.186279 364.206665,322.307465 352.796478,319.074677 
	C342.505554,316.159027 334.395294,306.352753 333.520538,295.336975 
	C332.658905,284.486755 337.024353,275.725067 346.217834,269.950378 
	C355.569702,264.076172 365.368530,264.074738 375.047729,269.572845 
	C376.202698,270.228882 377.294434,270.996246 378.709900,271.854736 
	C379.004333,271.997437 378.975403,271.966187 378.975403,271.966187 
M352.005554,306.000458 
	C352.005554,306.000458 351.986938,305.980438 352.387665,306.592407 
	C357.559509,310.034302 365.035278,309.875244 370.071899,306.216187 
	C376.056458,301.868378 378.513672,294.569153 376.312744,287.677277 
	C374.263306,281.259827 368.263794,276.657898 361.455170,276.280823 
	C353.324310,275.830475 346.719513,280.776764 344.629242,288.881714 
	C342.811157,295.931183 345.935547,303.165710 352.005554,306.000458 
z"/>
<path fill="#000000" opacity="1.000000" stroke="none" 
	d="
M426.895355,384.108032 
	C433.127563,391.298340 439.124420,398.222290 445.367065,405.430084 
	C442.663971,406.497589 441.854004,405.139191 440.900055,404.374329 
	C423.236237,390.211334 405.634827,375.970154 387.918091,361.873932 
	C385.196991,359.708862 383.964355,357.201447 383.660797,353.842285 
	C382.582794,341.912842 381.387817,329.993591 380.171112,318.077209 
	C379.921326,315.630554 380.351440,313.533813 381.897583,311.543335 
	C384.000641,308.835968 385.889893,305.962524 388.154175,302.759430 
	C391.256866,306.828461 391.078247,311.480072 392.056335,315.651794 
	C394.673187,326.813141 396.850708,338.077576 399.192017,349.303284 
	C399.747833,351.968231 400.925903,354.243011 402.751251,356.319031 
	C410.775452,365.445221 418.699585,374.659424 426.895355,384.108032 
z"/>
<path fill="#000000" opacity="1.000000" stroke="none" 
	d="
M216.796555,307.864624 
	C218.254745,309.601898 219.460541,311.108154 220.899826,312.849365 
	C222.284882,315.445343 222.073013,317.908081 221.824936,320.423798 
	C220.862335,330.185760 219.802002,339.943665 219.139267,349.727539 
	C218.732178,355.737335 216.638489,360.116211 211.620010,363.995270 
	C194.767471,377.021515 178.350204,390.610809 161.762939,403.980408 
	C160.524536,404.978577 159.434113,406.333557 157.518890,406.096008 
	C156.928726,403.854431 158.615829,402.951416 159.625198,401.788757 
	C172.939133,386.453064 186.261093,371.124084 199.645752,355.850159 
	C201.960709,353.208435 202.853485,350.057709 203.544617,346.802216 
	C206.306137,333.794495 209.006287,320.773804 211.729752,307.757996 
	C211.963760,306.639587 211.906189,305.399078 213.106232,304.573975 
	C215.167130,304.498108 215.323044,306.693848 216.796555,307.864624 
z"/>
<path fill="#000000" opacity="1.000000" stroke="none" 
	d="
M379.020813,272.010986 
	C374.499146,268.279816 374.996277,262.987762 374.520233,257.901062 
	C373.698761,249.123398 372.583069,240.373383 371.612976,231.609329 
	C371.474945,230.362122 370.808777,228.961578 372.442200,227.967819 
	C374.806610,229.061630 374.687073,231.462753 375.099731,233.434723 
	C377.553101,245.157532 379.933716,256.896179 382.219452,268.652740 
	C382.563782,270.423859 384.016998,273.622833 379.301483,272.056488 
	C378.975403,271.966187 379.004333,271.997437 379.020813,272.010986 
z"/>
<path fill="#000000" opacity="1.000000" stroke="none" 
	d="
M226.050201,268.694672 
	C225.052200,269.666229 224.184860,270.240631 223.076447,271.024231 
	C221.225281,271.531952 219.122223,272.324066 219.720764,269.341827 
	C222.307159,256.455048 224.993942,243.588303 227.695679,230.725082 
	C227.814087,230.161301 228.438416,229.703781 229.479935,229.299286 
	C229.710724,242.427048 228.474503,255.400223 226.050201,268.694672 
z"/>
<path fill="#000000" opacity="1.000000" stroke="none" 
	d="
M236.178253,278.936768 
	C243.037415,276.745850 244.714951,277.491272 246.727005,283.871918 
	C247.414124,286.050934 248.611420,286.634827 250.651550,286.850342 
	C254.379395,287.244171 255.558273,289.852539 255.522430,293.216187 
	C255.487259,296.518646 253.885559,298.693054 250.513992,298.916107 
	C247.624725,299.107269 246.405121,300.289581 246.356430,303.226013 
	C246.303253,306.433472 244.183823,307.908112 241.146484,308.146149 
	C238.003052,308.392487 235.270874,307.413391 234.559937,304.143951 
	C233.842163,300.843079 232.648117,298.956177 228.925476,298.562744 
	C226.037704,298.257568 225.215775,295.494446 225.158325,292.835297 
	C225.104828,290.358276 225.860962,287.423615 228.397644,287.338318 
	C233.078033,287.180908 234.112808,284.460388 234.742096,280.813568 
	C234.843735,280.224640 235.468048,279.725861 236.178253,278.936768 
z"/>
<path fill="#000000" opacity="1.000000" stroke="none" 
	d="
M352.017242,306.008118 
	C350.495667,303.662109 348.219086,301.899200 347.026550,299.240204 
	C344.029358,292.557404 345.958282,285.159180 352.047699,280.646912 
	C357.449646,276.644135 365.364532,276.957550 370.524078,281.378632 
	C375.703064,285.816406 377.164185,293.912567 373.887207,300.013580 
	C370.580566,306.169800 363.175964,309.323792 356.527130,307.384979 
	C355.253998,307.013733 354.007935,306.549652 352.368164,306.054443 
	C351.986938,305.980438 352.005554,306.000458 352.017242,306.008118 
z"/>
</svg>